<svg width="82" height="32" viewBox="0 0 82 32" fill="none" xmlns="http://www.w3.org/2000/svg">
<path d="M12.4429 3.09098C14.5061 2.91607 17.6675 3.6402 19.4624 4.72595C22.6138 6.63247 23.3907 8.47091 24.2674 11.8271C22.6731 12.0006 20.129 12.5197 18.6255 12.9836C18.4518 12.461 18.274 11.9391 18.0479 11.4364C17.4166 9.99784 16.2234 8.88069 14.7464 8.34529C11.4687 7.14501 7.59365 8.79085 6.33361 12.4215C4.09891 18.8606 8.09745 26.2814 15.5828 23.3142C17.0087 22.749 17.7751 21.411 18.2686 19.9549L18.3124 19.8237C18.9535 19.5391 23.1658 20.6659 24.1153 20.9071C23.6001 22.5011 23.0681 23.9458 21.9539 25.2205C17.7725 30.0911 8.59098 30.0169 3.98996 25.9039C-2.12239 20.4397 -1.2294 7.70846 6.78923 4.35316C8.83886 3.49558 10.2482 3.22636 12.4429 3.09098Z" fill="white"/>
<path d="M33.3361 10.0131C38.5569 9.20916 43.4331 12.811 44.1994 18.0375C44.9656 23.2643 41.3281 28.1151 36.0958 28.8432C30.9173 29.5638 26.1276 25.9714 25.3693 20.7983C24.6109 15.625 28.1686 10.8091 33.3361 10.0131ZM39.2218 18.7758C38.8747 16.3265 36.6038 14.625 34.1554 14.9789C31.7171 15.3318 30.0229 17.5913 30.3683 20.0307C30.714 22.4699 32.969 24.1697 35.4093 23.8315C37.8599 23.4915 39.5689 21.2255 39.2218 18.7758Z" fill="white"/>
<path d="M52.3126 3.65188C55.3797 3.64374 58.9722 3.37857 61.5216 5.397C62.7448 6.37582 63.5255 7.80459 63.6886 9.36282C63.9275 11.5763 62.9527 13.8004 61.0314 14.9546C60.8592 15.0666 61.4693 15.3641 61.5704 15.4312C65.5107 18.058 66.0595 21.796 63.7569 25.6275C60.7593 29.387 56.2315 28.9216 51.8849 28.9116L45.338 28.8941C45.3203 26.0078 45.2186 4.05314 45.4562 3.73293L45.9601 3.67141L52.3126 3.65188ZM57.3429 18.2144C55.3911 17.8956 53.0175 18.0417 51.005 18.0572C51.0049 20.0184 51.0175 21.9958 50.9943 23.9556C53.2273 23.9727 57.1024 24.3585 58.8341 23.1128C60.2424 21.3518 59.748 18.6075 57.3429 18.2144ZM58.4327 10.6929C58.7153 7.39293 53.2181 8.14829 51.0109 8.09524L51.0128 13.2769C52.9456 13.2868 56.1052 13.5358 57.6739 12.564C58.3425 11.9154 58.3547 11.6029 58.4327 10.6929Z" fill="white"/>
<path d="M74.1296 10.1657C77.2146 10.1619 80.6955 11.365 81.7419 14.5456C82.0178 15.3842 81.8949 18.6917 81.8933 19.7311L81.8776 28.5954C80.3846 28.6782 78.6717 28.6328 77.1784 28.5925L77.1726 26.611C76.6884 27.2029 75.9702 27.7503 75.2976 28.112C73.6824 28.987 71.7821 29.173 70.028 28.6276C68.4015 28.1368 67.378 27.2452 66.5964 25.779C65.9474 24.0887 65.8535 21.9677 66.9792 20.4508C69.2514 17.3893 73.8771 17.6154 77.2468 17.0622C77.1624 16.4216 77.0788 15.8328 76.7009 15.2702C75.765 13.877 73.4449 13.732 72.1442 14.6667C71.321 15.2586 71.1428 15.9514 70.9968 16.9157C69.3846 16.7608 67.797 16.4196 66.237 15.9928C67.381 12.4467 69.3181 10.723 73.0739 10.2096C73.4247 10.1787 73.7774 10.1638 74.1296 10.1657ZM77.1208 21.027C76.9117 20.9308 76.8632 20.9568 76.6237 20.9909C75.1715 21.1172 74.0715 21.1868 72.655 21.5758C70.8372 22.0753 70.7195 24.3516 72.2927 25.0602C73.4975 25.3054 74.2849 25.3248 75.3962 24.6462C76.3375 24.0714 77.5483 22.1223 77.1208 21.027Z" fill="white"/>
</svg>
