<svg width="82" height="32" viewBox="0 0 82 32" fill="none" xmlns="http://www.w3.org/2000/svg">
<path d="M12.4429 3.09098C14.5061 2.91607 17.6675 3.6402 19.4624 4.72595C22.6138 6.63247 23.3907 8.47091 24.2674 11.8271C22.6731 12.0006 20.129 12.5197 18.6255 12.9836C18.4518 12.461 18.274 11.9391 18.0479 11.4364C17.4166 9.99784 16.2234 8.88069 14.7464 8.34529C11.4687 7.14501 7.59365 8.79085 6.33361 12.4215C4.09891 18.8606 8.09745 26.2814 15.5828 23.3142C17.0087 22.749 17.7751 21.411 18.2686 19.9549L18.3124 19.8237C18.9535 19.5391 23.1658 20.6659 24.1153 20.9071C23.6001 22.5011 23.0681 23.9458 21.9539 25.2205C17.7725 30.0911 8.59098 30.0169 3.98996 25.9039C-2.12239 20.4397 -1.2294 7.70846 6.78923 4.35316C8.83886 3.49558 10.2482 3.22636 12.4429 3.09098Z" fill="black"/>
<path d="M33.3358 10.0132C38.5567 9.20902 43.4338 12.8109 44.2 18.0376C44.9662 23.2643 41.3278 28.1151 36.0955 28.8432C30.9171 29.5636 26.1273 25.9714 25.369 20.7983C24.6106 15.625 28.1683 10.8092 33.3358 10.0132ZM39.2215 18.7768C38.8745 16.3272 36.6037 14.6249 34.1551 14.979C31.7167 15.3319 30.0235 17.5913 30.369 20.0307C30.7147 22.4701 32.9696 24.171 35.41 23.8325C37.8604 23.4925 39.5683 21.2263 39.2215 18.7768Z" fill="black"/>
<path d="M52.312 3.6519C55.3792 3.64377 58.9725 3.37835 61.522 5.39702C62.7452 6.37584 63.5249 7.80461 63.688 9.36284C63.9269 11.5764 62.9531 13.8004 61.0317 14.9546C60.8585 15.0666 61.4703 15.3644 61.5708 15.4312C65.5111 18.058 66.0589 21.796 63.7563 25.6275C60.7587 29.3867 56.2318 28.9216 51.8852 28.9117L45.3374 28.8941C45.3197 26.0086 45.2183 4.06514 45.4556 3.73296L45.9595 3.67143L52.312 3.6519ZM57.3423 18.2144C55.3905 17.8956 53.0168 18.0417 51.0044 18.0572C51.0043 20.0184 51.0179 21.9958 50.9946 23.9556C53.2276 23.9727 57.1017 24.3582 58.8335 23.1128C60.2419 21.3517 59.7477 18.6073 57.3423 18.2144ZM58.4331 10.6929C58.7156 7.39302 53.2185 8.14831 51.0112 8.09526L51.0132 13.2769C52.9459 13.2869 56.1047 13.5358 57.6733 12.564C58.3422 11.9152 58.355 11.603 58.4331 10.6929Z" fill="black"/>
<path d="M74.1296 10.1657C77.2146 10.1619 80.6955 11.365 81.7419 14.5456C82.0178 15.3842 81.8949 18.6917 81.8933 19.7311L81.8776 28.5954C80.3846 28.6782 78.6717 28.6328 77.1784 28.5925L77.1726 26.611C76.6884 27.2029 75.9702 27.7503 75.2976 28.112C73.6824 28.987 71.7821 29.173 70.028 28.6276C68.4015 28.1368 67.378 27.2452 66.5964 25.779C65.9474 24.0887 65.8535 21.9677 66.9792 20.4508C69.2514 17.3893 73.8771 17.6154 77.2468 17.0622C77.1624 16.4216 77.0788 15.8328 76.7009 15.2702C75.765 13.877 73.4449 13.732 72.1442 14.6667C71.321 15.2586 71.1428 15.9514 70.9968 16.9157C69.3846 16.7608 67.797 16.4196 66.237 15.9928C67.381 12.4467 69.3181 10.723 73.0739 10.2096C73.4247 10.1787 73.7774 10.1638 74.1296 10.1657ZM77.1208 21.027C76.9117 20.9308 76.8632 20.9568 76.6237 20.9909C75.1715 21.1172 74.0715 21.1868 72.655 21.5758C70.8372 22.0753 70.7195 24.3516 72.2927 25.0602C73.4975 25.3054 74.2849 25.3248 75.3962 24.6462C76.3375 24.0714 77.5483 22.1223 77.1208 21.027Z" fill="black"/>
</svg>
