<svg width="409" height="86" viewBox="0 0 409 86" fill="none" xmlns="http://www.w3.org/2000/svg">
<path d="M48.4481 9.52557C49.5028 9.45859 51.0399 9.7768 52.0292 10.1418C54.5522 11.045 56.6079 12.9222 57.7342 15.3537C58.4814 16.9765 59.0247 18.5608 59.6756 20.2053L62.4296 27.0012L64.5008 32.2297C65.8379 35.5794 67.0168 38.1131 65.6444 41.8029C64.8992 43.7906 63.5759 45.5098 61.8456 46.7394C60.3211 47.8191 56.966 48.9671 55.1854 49.6926L41.5682 55.1877C40.1259 55.7833 38.6491 56.3014 37.2323 56.9474C37.5148 57.6195 37.8009 58.3746 38.0448 59.0666C39.2647 62.5275 41.454 65.738 40.6698 69.5305C40.1583 71.8954 38.725 73.959 36.6874 75.2639C35.7809 75.8518 35.0928 76.0592 34.1483 76.4689C31.1566 77.7668 28.9992 78.0423 25.8026 77.3517C24.0322 76.8211 22.4628 76.0188 21.0624 74.7961C19.9559 73.8375 19.0491 72.6695 18.3954 71.3596C17.6511 69.8952 16.8894 67.731 16.2792 66.1623C15.3733 63.8859 14.4545 61.6146 13.5223 59.3488C11.4728 54.3368 9.45627 49.3111 7.47252 44.2726C6.2908 41.2987 4.30922 37.456 4.03697 34.2785C3.81181 31.6494 4.91154 28.8597 6.60924 26.8615C8.67311 24.4325 11.3384 23.7214 14.201 22.5695L23.2987 18.9289L35.2704 14.1008C37.514 13.1665 39.7661 12.2523 42.0262 11.3586C44.4822 10.3853 45.7829 9.71057 48.4481 9.52557ZM28.0985 60.6037C27.2781 60.942 26.3268 61.2537 25.6171 61.7932C22.1969 64.3934 22.9188 69.4383 26.9374 71.0158C26.9987 71.0397 27.0612 71.062 27.1239 71.0822C28.7498 71.5148 29.6083 71.4089 31.1952 70.8254C32.3837 70.3883 33.9741 69.8563 34.3944 68.4767C34.796 67.1586 33.6057 65.2058 33.1669 63.9787C32.902 63.2382 31.4919 59.508 31.1131 59.3361L28.0985 60.6037ZM55.4715 26.884C54.4565 27.441 52.4097 28.1333 51.2674 28.591L42.496 32.1144L14.0477 43.5334C15.1286 46.4973 16.4433 49.4969 17.6044 52.4416C18.2833 54.1635 18.8944 55.7795 19.6415 57.4816L19.9784 58.3723C22.0631 55.805 25.4348 54.8772 28.368 53.6349C29.5918 53.1168 30.8601 52.6455 32.0946 52.1428L42.3973 48.0197C47.0084 46.1577 51.5947 44.272 56.2674 42.4533C59.1605 41.3272 60.7745 39.6571 59.3602 36.3781C58.9079 35.3293 55.6957 27.0518 55.4715 26.884ZM48.5497 15.8439C46.8353 16.037 41.2809 18.5271 39.3671 19.299C34.0621 21.3964 28.768 23.5219 23.4852 25.675C20.1526 27.0231 16.8117 28.3568 13.4715 29.6867C13.1773 29.8038 12.8794 29.9141 12.5907 30.0441C11.2846 30.7367 10.121 32.5718 10.3251 34.0539C10.4959 35.294 11.2456 36.4931 11.661 37.6486C12.4022 37.3744 13.137 37.0823 13.8641 36.7726C17.8753 35.2537 21.8387 33.5741 25.8114 31.9631L40.0067 26.2824C42.4964 25.2783 45.0354 24.1962 47.5243 23.2336L51.3485 21.7219C51.8686 21.5133 52.6913 21.2334 53.1581 20.9846C52.2337 18.5987 51.6145 15.9773 48.5497 15.8439Z" fill="#18181b"/>
<path d="M92.1703 68V17.6909H126.027V24.6254H100.125V40.0581H122.9V46.9246H100.125V68H92.1703ZM143.429 31.2879C145.695 31.2879 147.576 31.6505 149.071 32.3757C150.612 33.1009 151.836 33.9394 152.743 34.8912C153.649 35.843 154.306 36.6588 154.714 37.3386H155.122V31.9678H162.872V68H155.122V62.6292H154.714C154.306 63.309 153.649 64.1248 152.743 65.0766C151.836 66.0284 150.612 66.8669 149.071 67.5921C147.576 68.3173 145.695 68.6799 143.429 68.6799C140.709 68.6799 138.33 68.1586 136.29 67.1162C134.296 66.0284 132.619 64.6007 131.259 62.8331C129.899 61.0202 128.88 59.0033 128.2 56.7824C127.565 54.5616 127.248 52.2954 127.248 49.9839C127.248 47.6724 127.565 45.4062 128.2 43.1854C128.88 40.9645 129.899 38.9703 131.259 37.2027C132.619 35.3897 134.296 33.962 136.29 32.9196C138.33 31.8318 140.709 31.2879 143.429 31.2879ZM145.128 37.7466C142.907 37.7466 141.049 38.3584 139.553 39.5822C138.058 40.7606 136.925 42.2789 136.154 44.1372C135.429 45.9954 135.066 47.9443 135.066 49.9839C135.066 52.0235 135.429 53.9724 136.154 55.8306C136.925 57.6889 138.058 59.2299 139.553 60.4536C141.049 61.632 142.907 62.2213 145.128 62.2213C147.349 62.2213 149.185 61.632 150.635 60.4536C152.131 59.2299 153.241 57.6889 153.966 55.8306C154.737 53.9724 155.122 52.0235 155.122 49.9839C155.122 47.9443 154.737 45.9954 153.966 44.1372C153.241 42.2789 152.131 40.7606 150.635 39.5822C149.185 38.3584 147.349 37.7466 145.128 37.7466ZM168.545 68V31.9678H176.295V37.0667H176.567C176.975 36.3415 177.564 35.5257 178.335 34.6192C179.151 33.7128 180.216 32.9423 181.53 32.3077C182.844 31.6279 184.499 31.2879 186.493 31.2879C189.167 31.2879 191.388 31.9225 193.156 33.1915C194.923 34.4606 196.238 36.1376 197.099 38.2224H197.235C198.186 36.4095 199.569 34.8005 201.382 33.3955C203.195 31.9905 205.597 31.2879 208.588 31.2879C211.126 31.2879 213.279 31.8998 215.047 33.1236C216.814 34.302 218.129 35.9109 218.99 37.9505C219.896 39.9447 220.35 42.2109 220.35 44.749V68H212.599V45.8368C212.599 43.48 212.033 41.5537 210.9 40.0581C209.767 38.5624 208.09 37.8145 205.869 37.8145C204.056 37.8145 202.583 38.3131 201.45 39.3102C200.362 40.3073 199.569 41.5537 199.07 43.0494C198.572 44.4998 198.322 45.9728 198.322 47.4684V68H190.572V45.8368C190.572 43.48 190.006 41.5537 188.872 40.0581C187.739 38.5624 186.062 37.8145 183.842 37.8145C182.029 37.8145 180.556 38.3131 179.422 39.3102C178.335 40.3073 177.542 41.5537 177.043 43.0494C176.544 44.4998 176.295 45.9728 176.295 47.4684V68H168.545ZM230.721 25.7811C229.316 25.7811 228.16 25.3052 227.254 24.3535C226.347 23.4017 225.894 22.2912 225.894 21.0222C225.894 19.7078 226.347 18.5974 227.254 17.6909C228.16 16.7391 229.316 16.2632 230.721 16.2632C232.126 16.2632 233.282 16.7391 234.188 17.6909C235.14 18.5974 235.616 19.7078 235.616 21.0222C235.616 22.3366 235.14 23.4696 234.188 24.4214C233.282 25.3279 232.126 25.7811 230.721 25.7811ZM226.914 68V31.9678H234.664V68H226.914ZM241.897 68L241.965 16.3312H249.648V68H241.897ZM257.78 81.2571C256.647 81.2571 255.718 81.2118 254.993 81.1212C254.268 81.0305 253.905 80.9852 253.905 80.9852V74.5266C253.905 74.5266 254.268 74.5492 254.993 74.5946C255.718 74.6852 256.511 74.7305 257.372 74.7305C259.865 74.7305 261.905 74.2546 263.491 73.3029C265.123 72.3964 266.505 70.7874 267.638 68.4759L253.905 31.9678H261.791L271.513 58.958L281.235 31.9678H289.257L275.66 67.5921C273.847 72.2604 271.536 75.705 268.726 77.9259C265.916 80.1467 262.267 81.2571 257.78 81.2571ZM292.853 68V17.6909H312.705C316.739 17.6909 320.093 18.5067 322.767 20.1384C325.441 21.7247 327.435 23.8096 328.749 26.393C330.109 28.9311 330.789 31.5826 330.789 34.3473C330.789 37.112 330.109 39.7861 328.749 42.3696C327.435 44.9077 325.441 46.9925 322.767 48.6242C320.093 50.2558 316.739 51.0717 312.705 51.0717H302.099V68H292.853ZM312.637 25.7132H302.099V43.0494H312.637C314.631 43.0494 316.286 42.6415 317.6 41.8257C318.914 40.9645 319.889 39.8768 320.523 38.5624C321.203 37.2027 321.543 35.8203 321.543 34.4153C321.543 32.9649 321.203 31.5826 320.523 30.2682C319.889 28.9538 318.914 27.866 317.6 27.0049C316.286 26.1437 314.631 25.7132 312.637 25.7132ZM347.893 31.2879C350.204 31.2879 352.108 31.6732 353.603 32.4437C355.099 33.1689 356.278 33.9847 357.139 34.8912C358 35.7523 358.589 36.4548 358.906 36.9987H359.314V31.9678H368.356V68H359.314V62.9691H358.906C358.589 63.513 358 64.2381 357.139 65.1446C356.278 66.0511 355.099 66.8669 353.603 67.5921C352.108 68.3173 350.204 68.6799 347.893 68.6799C345.219 68.6799 342.884 68.1586 340.89 67.1162C338.896 66.0284 337.219 64.6007 335.859 62.8331C334.545 61.0202 333.548 59.0033 332.868 56.7824C332.233 54.5616 331.916 52.2954 331.916 49.9839C331.916 47.6724 332.233 45.4062 332.868 43.1854C333.548 40.9645 334.545 38.9703 335.859 37.2027C337.219 35.3897 338.896 33.962 340.89 32.9196C342.884 31.8318 345.219 31.2879 347.893 31.2879ZM350.272 38.6983C348.233 38.6983 346.51 39.2649 345.105 40.398C343.746 41.4857 342.726 42.8908 342.046 44.6131C341.366 46.3354 341.026 48.1256 341.026 49.9839C341.026 51.8422 341.366 53.6324 342.046 55.3547C342.726 57.077 343.746 58.5047 345.105 59.6378C346.51 60.7256 348.233 61.2695 350.272 61.2695C352.312 61.2695 354.011 60.7256 355.371 59.6378C356.731 58.5047 357.751 57.077 358.43 55.3547C359.11 53.6324 359.45 51.8422 359.45 49.9839C359.45 48.1256 359.11 46.3354 358.43 44.6131C357.751 42.8908 356.731 41.4857 355.371 40.398C354.011 39.2649 352.312 38.6983 350.272 38.6983ZM374.995 81.2571C373.816 81.2571 372.842 81.2118 372.072 81.1212C371.346 81.0305 370.984 80.9852 370.984 80.9852V73.5748C370.984 73.5748 371.324 73.5975 372.004 73.6428C372.683 73.7334 373.477 73.7787 374.383 73.7787C376.695 73.7787 378.598 73.3935 380.094 72.623C381.635 71.8978 382.927 70.5155 383.969 68.4759L370.44 31.9678H379.618L388.66 57.6662L397.566 31.9678H406.744L393.555 67.1162C391.742 71.9205 389.408 75.4784 386.552 77.7899C383.697 80.1014 379.845 81.2571 374.995 81.2571Z" fill="#18181b"/>
</svg>
