<svg width="116" height="32" viewBox="0 0 116 32" fill="none" xmlns="http://www.w3.org/2000/svg">
<g clip-path="url(#clip0_171_57)">
<path d="M66.2689 9.80317C70.5147 9.2415 74.411 12.2303 74.9678 16.4763C75.5252 20.7223 72.5323 24.6152 68.2854 25.168C64.0447 25.72 60.1586 22.7325 59.6024 18.4928C59.0461 14.253 62.0294 10.3641 66.2689 9.80317ZM68.0248 22.7099C72.5487 22.2229 73.5461 15.9449 70.3998 13.2253C69.3423 12.311 67.9376 12.1837 66.581 12.2604C60.3155 13.1239 61.1045 23.5959 68.0248 22.7099Z" fill="black"/>
<path d="M90.6154 9.98988C92.327 9.91744 94.1101 9.97345 95.7974 9.9709C100.413 9.96377 103.766 13.1357 103.494 17.8344C103.36 20.1642 102.827 21.5652 101.124 23.1799C98.8804 24.9741 97.0662 25.0046 94.3384 25.0102C93.0951 25.0142 91.8513 25.0068 90.608 24.988C91.1019 22.5807 90.9088 20.0131 90.9093 17.5612C90.9093 15.0535 91.0883 12.4582 90.6154 9.98988ZM93.6405 22.5794C95.6343 22.6098 97.4043 22.7695 99.0928 21.53C100.24 20.4937 100.687 19.3644 100.761 17.8415C100.923 14.527 99.1336 12.5461 95.8371 12.395C95.3024 12.375 94.7683 12.368 94.2336 12.3738C94.0795 12.3801 93.7697 12.3744 93.6547 12.4465C93.5918 15.7884 93.6655 19.2259 93.6405 22.5794Z" fill="black"/>
<path d="M109.515 9.81601C111.304 9.68364 112.835 9.96887 114.477 10.7042C114.502 11.6392 114.483 12.6291 114.466 13.5642C113.227 12.6875 111.475 11.88 109.93 12.029C109.326 12.0874 108.653 12.194 108.244 12.683C107.986 12.9939 107.864 13.3957 107.906 13.7975C108.013 14.9021 109.052 15.2896 109.924 15.6705C111.35 16.2937 112.975 16.6946 114.204 17.6736C115.916 19.0366 116.003 21.8101 114.629 23.4373C113.486 24.7788 111.915 25.043 110.268 25.1847C108.694 25.2307 106.884 24.8361 105.474 24.1346C105.426 23.1598 105.412 22.1836 105.432 21.2078C107.103 22.2026 108.714 23.2195 110.77 22.9508C111.859 22.8088 113.129 22.0897 112.905 20.8081C112.66 19.4084 110.134 18.772 108.983 18.2765C107.702 17.7588 105.911 16.9571 105.482 15.4592C104.536 12.1525 106.535 10.2825 109.515 9.81601Z" fill="black"/>
<path d="M75.2641 9.99755C76.2581 9.94522 77.3711 9.97031 78.3663 9.98028C78.5781 12.6158 80.228 15.2879 81.9018 17.264C83.6854 15.2155 85.2861 12.7571 85.5698 9.98968C86.5186 9.96697 87.6446 9.9433 88.5854 9.99993C88.0705 12.1836 87.3523 13.6791 86.2637 15.6023C85.2832 17.15 84.5865 18.0973 83.2821 19.4299C83.2136 21.1844 83.2787 23.1947 83.2589 24.9894C82.356 25.0063 81.4532 25.0065 80.5509 24.9899L80.5311 19.4047C79.0137 18.0671 77.3467 15.4277 76.4926 13.5787C76.3079 13.179 75.1315 10.3672 75.2641 9.99755Z" fill="black"/>
<path d="M38.1583 9.99274C39.1232 9.95836 40.5884 9.93208 41.5343 10.0052C41.1217 11.8981 41.2403 14.196 41.2407 16.1757C41.2353 18.3115 41.241 20.4473 41.2577 22.5831C43.3606 22.5429 45.9208 22.7286 47.9295 22.3314C47.739 23.0229 47.5149 23.6874 47.2898 24.3678L47.1255 25.0056L38.1353 24.9901C38.5906 23.256 38.5072 22.0756 38.5076 20.314L38.5092 16.6993C38.5096 15.1218 38.5317 13.4831 38.4859 11.9069C38.4737 11.4892 38.2457 10.4172 38.1583 9.99274Z" fill="black"/>
<path d="M49.3942 9.98768C50.5148 9.96231 51.6359 9.96384 52.7564 9.99221C52.3111 12.1554 52.4436 13.8471 52.4447 16.0375L52.4496 22.5833C54.4907 22.5776 57.1578 22.6934 59.1192 22.354C58.9334 23.042 58.785 23.567 58.5415 24.2405L58.3455 25.0002L49.3796 24.9884C49.7759 23.4131 49.7373 22.5494 49.7318 20.9505L49.7326 17.5913L49.734 13.8917C49.734 12.2843 49.7388 11.5833 49.3942 9.98768Z" fill="black"/>
<path d="M16.6259 2.38429C18.2569 3.45756 18.306 1.78985 19.3978 1.36909C19.5514 1.48789 19.49 2.36386 20.1024 2.29051C20.7993 2.20706 20.8349 1.18719 21.2244 0.869141C21.4806 0.921422 21.549 1.37292 21.5971 1.60483C21.6862 1.42187 21.8053 1.11516 21.967 1.0184C22.1745 1.09439 22.2165 1.29954 22.291 1.50053L22.1707 2.34269C22.8471 2.86994 23.1292 2.96797 23.0449 3.87477C23.4759 4.48525 25.3513 6.4497 25.2393 7.08386C25.2039 7.28442 25.1031 7.50717 25.0179 7.69288C24.4751 8.09999 23.6699 8.30558 23.2015 7.67176C23.151 7.60238 23.1033 7.53107 23.0585 7.4579C22.6329 7.27365 21.6986 6.73385 21.345 6.78017C20.8917 7.05266 21.1329 8.077 21.3964 8.4145C22.5021 9.83026 24.1517 10.1696 24.6229 12.1378C25.5345 11.7955 26.5486 11.5194 27.3966 11.1867C29.1218 12.6677 30.6192 14.3519 32.5522 15.6028C32.9868 15.8841 33.3454 16.4066 33.6316 16.8377C32.8106 16.8524 32.0153 16.8622 31.1936 16.8235L31.192 16.1125C30.9612 16.0316 30.6768 15.94 30.4573 15.8434C29.5436 14.5134 28.7157 13.771 27.2628 13.0905C26.2619 13.7789 25.5944 14.2346 24.8247 15.1946C26.5081 15.1373 27.1994 15.2111 28.8391 15.4697C28.643 17.0561 28.3887 21.2371 27.6394 22.4128C27.3072 22.9341 26.6714 23.1733 26.3303 23.6624C26.2808 22.9419 26.2695 21.9273 26.2984 21.1946L27.0102 21.1771C26.848 20.4714 26.9108 20.2048 27.118 19.5041C27.3971 18.5605 27.6134 17.6398 27.4883 16.6484C24.8922 17.1317 24.4468 19.2057 21.8394 19.1385C21.5834 19.3086 21.3755 19.4981 21.1284 19.6673C19.2112 20.9806 16.7371 21.2957 14.4799 21.362C14.2401 23.5323 12.3598 24.2536 11.8338 25.8224C12.1573 26.9344 13.837 29.4306 14.6726 30.2303C15.5153 31.0368 15.639 30.7692 16.5404 31.9997H14.118C14.1132 31.7572 14.0818 31.4612 14.0621 31.215L13.3939 30.8854C12.2566 28.9494 11.1941 27.6493 9.52338 26.1416C9.94388 25.1285 10.0926 24.698 10.1623 23.618C9.95345 23.8476 9.7905 24.0119 9.55991 24.2111C9.04986 24.6518 8.0565 25.0634 7.99448 25.8085C7.89819 26.9645 8.34203 29.1464 8.96366 30.1423C9.12933 30.4077 9.75725 30.939 9.99429 31.1921C10.2512 31.4664 10.4124 31.7063 10.6201 31.9997H8.18785C8.18207 31.7535 8.16899 31.4739 8.17443 31.2307L7.55721 30.8374C7.35433 28.5568 6.85963 26.7575 5.78634 24.7254C9.16926 21.6603 5.57161 21.0885 6.41891 17.7574C6.49158 17.4715 6.85011 16.9254 6.99874 16.6216C6.66937 16.3153 6.32992 16.0257 5.84146 16.026C5.55345 16.0262 5.09764 16.2285 4.89859 16.4469C4.70331 16.6613 4.65444 16.8773 4.66159 17.1801C4.67256 17.6452 4.92824 18.0331 5.14647 18.4295C5.12662 18.4658 5.10886 18.4983 5.09319 18.5271C4.61323 18.8712 4.18795 18.5481 3.74234 18.2905C3.85496 18.7526 3.94398 19.0738 4.16458 19.5075C4.77827 20.7139 5.84973 21.8704 5.0476 23.2846C4.4493 24.3395 3.08902 24.4478 2.09891 23.8848C1.77008 23.6979 1.5613 23.4096 1.33501 23.1117C1.78771 23.1663 2.1969 23.1989 2.57788 22.8963C2.77982 22.7359 2.89226 22.5041 2.92053 22.2498C3.12267 20.4315 -0.263475 18.6527 0.476893 15.7266C0.634788 15.1026 1.00309 14.5024 1.50242 14.0945C2.28636 13.454 3.28641 13.304 4.26573 13.4067C5.49165 13.5353 6.52788 14.1881 7.29299 15.1357C7.50216 15.3948 7.69072 15.68 7.87202 15.9591C8.54978 15.5921 9.29382 15.2569 10.0547 15.1411C11.8308 14.8729 13.7185 15.1388 15.4331 14.527C16.0887 14.2911 16.831 13.8856 17.0464 13.1717C17.1112 12.9566 17.2243 12.405 16.91 12.3167C16.5614 12.2187 16.1947 12.8099 15.9866 12.4443C15.8236 12.1577 15.7711 11.6989 15.8418 11.3723C16.1388 10.4001 16.0292 9.96471 14.9466 10.5788C14.7325 9.29498 14.8676 9.01293 15.9183 8.24362C14.8448 7.93178 14.4415 7.6499 14.4614 6.46431L14.5071 6.38808C14.8892 6.40376 15.1961 6.45083 15.3175 6.02588C15.2514 5.50017 14.7645 5.08884 14.3898 4.76332C15.5839 3.5191 16.2914 4.09217 16.5122 3.90487C16.4988 3.07894 16.3381 3.19309 16.6259 2.38429Z" fill="black"/>
<path d="M18.9063 3.57422C18.945 3.6464 18.4617 4.22557 18.3504 4.40434C17.9431 5.05102 17.7057 5.79001 17.66 6.55291C17.3466 11.5324 21.5297 10.2523 23.4263 12.4041C20.9046 11.3293 19.9224 12.7362 18.5825 14.6188C17.4151 16.259 16.5166 17.8213 14.6632 18.7509C14.6953 18.5774 14.7292 18.3213 14.7343 18.1472C14.7433 17.8041 14.6158 17.4714 14.3799 17.2221C13.7374 16.5444 12.4473 16.4365 11.5711 16.4106C10.063 16.4048 8.1589 16.6848 7.40921 18.2078C7.2829 18.4644 7.18253 18.8518 7.09961 19.1314C6.84943 15.2079 11.5733 15.8481 14.1383 15.5196C15.0578 15.4019 16.249 15.0513 17.032 14.5297C19.2675 13.0403 17.6873 11.5487 17.0667 9.74147C16.7329 8.76091 16.6634 7.70967 16.8653 6.69371C17.1257 5.42248 17.817 4.2952 18.9063 3.57422Z" fill="#056A48"/>
<path d="M21.4436 2.58057C21.7119 2.60047 22.2127 2.83593 22.3955 3.06599C22.6604 3.39925 22.6221 3.46079 22.5863 3.87994C22.8891 4.3768 24.6748 6.30531 24.6102 6.63199L24.3081 6.7575C24.2302 6.89824 24.2873 7.35129 24.2974 7.55099C23.4549 7.47747 23.7977 7.21349 23.6958 6.54658C23.5722 5.73696 22.7587 4.94088 22.089 4.51734C21.7867 4.32617 21.5549 4.3107 21.1914 4.30844C21.8911 3.68554 21.9055 3.40134 21.4436 2.58057Z" fill="#065C3E"/>
<path d="M3.27368 14.1217C4.21999 14.0656 4.52379 14.1171 5.40962 14.4387C3.88386 14.4096 3.16486 14.3105 2.41245 15.7975L2.32119 15.8266C2.26065 15.6336 2.14706 15.3661 2.07122 15.1713C1.5921 15.6323 1.51935 15.8291 1.23959 16.4176C1.26002 14.9802 1.86265 14.3696 3.27368 14.1217Z" fill="#065C3E"/>
</g>
<defs>
<clipPath id="clip0_171_57">
<rect width="116" height="32" fill="white"/>
</clipPath>
</defs>
</svg>
